<svg width="17.766113" height="13.321777" viewBox="0 0 17.7661 13.3218" fill="none" xmlns="http://www.w3.org/2000/svg" xmlns:xlink="http://www.w3.org/1999/xlink">
	<desc>
			Created with Pixso.
	</desc>
	<defs/>
	<path id="Arrow 1" d="M2.41846 6.66089L7.36816 1.71118C7.76416 1.31519 7.76416 0.692871 7.36816 0.296875C6.97217 -0.098999 6.34985 -0.098999 5.95386 0.296875L0.297119 5.95374C-0.098877 6.34973 -0.098877 6.97205 0.297119 7.36804L5.95386 13.0249C6.34985 13.4208 6.97217 13.4208 7.36816 13.0249C7.76416 12.6289 7.76416 12.0066 7.36816 11.6106L2.41846 6.66089Z" fill="#FFFFFF" fill-opacity="1.000000" fill-rule="nonzero"/>
	<path id="Arrow 1" d="M17.7661 5.66089L1.00415 5.66089L1.00415 7.66089L17.7661 7.66089L17.7661 5.66089ZM2.41846 6.66089L7.36816 1.71118C7.76416 1.31519 7.76416 0.692871 7.36816 0.296875C6.97217 -0.098999 6.34985 -0.098999 5.95386 0.296875L0.297119 5.95374C-0.098877 6.34973 -0.098877 6.97205 0.297119 7.36804L5.95386 13.0249C6.34985 13.4208 6.97217 13.4208 7.36816 13.0249C7.76416 12.6289 7.76416 12.0066 7.36816 11.6106L2.41846 6.66089Z" fill="#011C44" fill-opacity="1.000000" fill-rule="evenodd"/>
</svg>
