<svg width="42.000000" height="42.000000" viewBox="0 0 42 42" fill="none" xmlns="http://www.w3.org/2000/svg" xmlns:xlink="http://www.w3.org/1999/xlink">
	<desc>
			Created with Pixso.
	</desc>
	<defs>
		<clipPath id="clip87_418">
			<rect id="uit:facebook-f" width="42.000000" height="42.000000" fill="white" fill-opacity="0"/>
		</clipPath>
	</defs>
	<rect id="uit:facebook-f" width="42.000000" height="42.000000" fill="#FFFFFF" fill-opacity="0"/>
	<g clip-path="url(#clip87_418)">
		<path id="Vector" d="M31.4824 2.79297C29.7173 2.60571 27.9429 2.51465 26.1675 2.52002C20.2822 2.52002 16.625 6.26855 16.625 12.3025L16.625 16.3993L11.6812 16.3993C11.4492 16.3993 11.2266 16.4915 11.0625 16.6555C10.8984 16.8196 10.8062 17.0422 10.8062 17.2743L10.8062 24.0117C10.8062 24.2438 10.8984 24.4664 11.0625 24.6305C11.2266 24.7946 11.4492 24.8867 11.6812 24.8867L16.625 24.8867L16.625 38.3967C16.625 38.6288 16.7173 38.8513 16.8813 39.0155C17.0454 39.1796 17.2681 39.2717 17.5 39.2717L24.4614 39.2717C24.6934 39.2717 24.916 39.1796 25.0801 39.0155C25.2441 38.8513 25.3364 38.6288 25.3364 38.3967L25.3364 24.8867L30.2646 24.8867C30.4771 24.8868 30.6821 24.8097 30.8418 24.6696C31.0015 24.5295 31.105 24.3362 31.1323 24.1255L32.002 17.3881C32.0186 17.2645 32.0078 17.139 31.9717 17.0198C31.9355 16.9006 31.8745 16.7905 31.792 16.697C31.71 16.6034 31.6089 16.5284 31.4951 16.4771C31.3818 16.4258 31.2588 16.3992 31.1343 16.3993L25.3364 16.3993L25.3364 12.9709C25.3364 11.2736 25.6777 10.5647 27.8003 10.5647L31.3687 10.5647C31.6006 10.5647 31.8232 10.4725 31.9873 10.3085C32.1514 10.1444 32.2437 9.92188 32.2437 9.6897L32.2437 3.66101C32.2437 3.44861 32.1665 3.24341 32.0264 3.08362C31.8862 2.92395 31.6929 2.82068 31.4824 2.79297ZM30.4937 8.81299L27.7988 8.8147C24.0239 8.8147 23.5864 11.1877 23.5864 12.9709L23.5864 17.276C23.5864 17.5078 23.6782 17.7301 23.8423 17.894C24.0059 18.0581 24.228 18.1505 24.4595 18.151L30.1401 18.151L29.4946 23.1385L24.4614 23.1385C24.2295 23.1385 24.0068 23.2307 23.8428 23.3948C23.6787 23.5588 23.5864 23.7815 23.5864 24.0135L23.5864 37.52L18.375 37.52L18.375 24.0135C18.375 23.7815 18.2827 23.5588 18.1187 23.3948C17.9546 23.2307 17.7319 23.1385 17.5 23.1385L12.5581 23.1385L12.5581 18.151L17.5 18.151C17.7319 18.151 17.9546 18.0588 18.1187 17.8948C18.2827 17.7306 18.375 17.5081 18.375 17.276L18.375 12.3025C18.375 7.27295 21.2886 4.27002 26.1675 4.27002C27.9336 4.27002 29.5278 4.36621 30.4937 4.4502L30.4937 8.81299Z" fill="#FFFFFF" fill-opacity="1.000000" fill-rule="nonzero"/>
	</g>
</svg>
