<svg width="42.000000" height="42.000000" viewBox="0 0 42 42" fill="none" xmlns="http://www.w3.org/2000/svg" xmlns:xlink="http://www.w3.org/1999/xlink">
	<desc>
			Created with Pixso.
	</desc>
	<defs>
		<clipPath id="clip87_420">
			<rect id="ph:instagram-logo-light" width="42.000000" height="42.000000" fill="white" fill-opacity="0"/>
		</clipPath>
	</defs>
	<rect id="ph:instagram-logo-light" width="42.000000" height="42.000000" fill="#FFFFFF" fill-opacity="0"/>
	<g clip-path="url(#clip87_420)">
		<path id="Vector" d="M21 13.4531C19.5073 13.4531 18.0483 13.8958 16.8071 14.725C15.5659 15.5543 14.5986 16.7329 14.0278 18.1119C13.4565 19.491 13.3071 21.0084 13.5981 22.4723C13.8892 23.9363 14.6079 25.281 15.6636 26.3364C16.7192 27.3918 18.064 28.1107 19.5278 28.4019C20.9917 28.6931 22.5093 28.5436 23.8882 27.9724C25.2671 27.4012 26.4458 26.4338 27.2749 25.1929C28.1045 23.9518 28.5469 22.4927 28.5469 21C28.5469 18.9984 27.752 17.0789 26.3364 15.6636C24.9209 14.2483 23.0015 13.4531 21 13.4531ZM21 26.5781C19.897 26.5781 18.8184 26.251 17.9009 25.6381C16.9834 25.0251 16.2686 24.1539 15.8467 23.1346C15.4243 22.1154 15.314 20.9938 15.5293 19.9117C15.7441 18.8297 16.2754 17.8358 17.0557 17.0557C17.8359 16.2755 18.8296 15.7443 19.9116 15.5291C20.9937 15.3138 22.1152 15.4243 23.1348 15.8464C24.1538 16.2687 25.0249 16.9836 25.6382 17.901C26.251 18.8182 26.5781 19.8967 26.5781 21C26.5737 22.478 25.9849 23.8944 24.9395 24.9396C23.8945 25.9847 22.478 26.5739 21 26.5781ZM28.2188 4.92188L13.7812 4.92188C11.4316 4.92188 9.17822 5.85522 7.5166 7.51672C5.85547 9.17822 4.92188 11.4316 4.92188 13.7812L4.92188 28.2188C4.92188 30.5684 5.85547 32.8218 7.5166 34.4833C9.17822 36.1448 11.4316 37.0781 13.7812 37.0781L28.2188 37.0781C30.5684 37.0781 32.8218 36.1448 34.4834 34.4833C36.1445 32.8218 37.0781 30.5684 37.0781 28.2188L37.0781 13.7812C37.0781 11.4316 36.1445 9.17822 34.4834 7.51672C32.8218 5.85522 30.5684 4.92188 28.2188 4.92188ZM35.1094 28.2188C35.1094 30.0463 34.3833 31.799 33.0913 33.0912C31.7988 34.3834 30.0464 35.1094 28.2188 35.1094L13.7812 35.1094C11.9536 35.1094 10.2012 34.3834 8.90869 33.0912C7.6167 31.799 6.89062 30.0463 6.89062 28.2188L6.89062 13.7812C6.89062 11.9537 7.6167 10.201 8.90869 8.90881C10.2012 7.61658 11.9536 6.89062 13.7812 6.89062L28.2188 6.89062C30.0464 6.89062 31.7988 7.61658 33.0913 8.90881C34.3833 10.201 35.1094 11.9537 35.1094 13.7812L35.1094 28.2188ZM31.1719 12.4688C31.1719 12.7932 31.0757 13.1105 30.8955 13.3802C30.7153 13.65 30.459 13.8604 30.1592 13.9845C29.8594 14.1086 29.5293 14.1411 29.2109 14.0779C28.8931 14.0145 28.6006 13.8583 28.3711 13.6289C28.1416 13.3994 27.9854 13.1071 27.9224 12.7888C27.8589 12.4706 27.8911 12.1407 28.0156 11.8409C28.1396 11.5411 28.3501 11.2849 28.6196 11.1046C28.8896 10.9243 29.2065 10.8281 29.5312 10.8281C29.9663 10.8281 30.3838 11.001 30.6914 11.3086C30.999 11.6163 31.1719 12.0336 31.1719 12.4688Z" fill="#FFFFFF" fill-opacity="1.000000" fill-rule="nonzero"/>
	</g>
</svg>
