<svg width="42.000000" height="42.000000" viewBox="0 0 42 42" fill="none" xmlns="http://www.w3.org/2000/svg" xmlns:xlink="http://www.w3.org/1999/xlink">
	<desc>
			Created with Pixso.
	</desc>
	<defs>
		<clipPath id="clip87_416">
			<rect id="telephone-receiver_icon-icons.com_56033 1" width="42.000000" height="42.000000" fill="white" fill-opacity="0"/>
		</clipPath>
	</defs>
	<rect id="telephone-receiver_icon-icons.com_56033 1" width="42.000000" height="42.000000" fill="#FFFFFF" fill-opacity="0"/>
	<g clip-path="url(#clip87_416)">
		<path id="Vector" d="M36.2964 30.1315L36.0688 29.8479C34.2681 27.5712 32.7632 26.3864 31.4717 26.2307C30.3555 26.0784 29.2754 26.8502 28.1274 27.6447L26.9009 28.4111C26.7539 28.4846 26.6084 28.5442 26.4722 28.5844C25.7544 28.7874 23.9434 28.9064 22.918 27.9684C21.7241 26.8765 19.8726 24.8779 18.4326 23.1315C17.0571 21.3236 15.5449 19.0697 14.7559 17.6504C14.0889 16.4481 14.6475 14.7664 15.02 14.1434C15.0938 14.0209 15.1899 13.9001 15.2964 13.7811L16.3779 12.7819C16.3936 12.7661 16.4009 12.7469 16.4146 12.7329C16.4253 12.7224 16.4429 12.726 16.4551 12.7172C17.4316 11.8929 18.4414 11.0442 18.5796 9.95386C18.7422 8.67285 17.9458 6.94043 16.1416 4.66541L15.9214 4.38196C14.8047 2.95044 13.1162 0.785645 10.6904 1.1427C9.73682 1.28442 8.88477 1.60986 8.00586 2.16113C7.99707 2.16638 7.99219 2.17688 7.98486 2.18213C7.97803 2.18738 7.96924 2.18738 7.9624 2.19263L6.73926 3.09912C6.72656 3.1062 6.71973 3.12195 6.70752 3.13245C6.69873 3.14111 6.68457 3.14294 6.67432 3.15161C6.53271 3.27063 6.39062 3.39319 6.25098 3.51917C5.01025 4.62512 2.32373 7.83643 4.15625 13.7759C5.33887 17.6119 7.77832 22.0884 11.228 26.7469L11.1943 26.7749L13.0967 29.1444L13.1123 29.1322C16.8521 33.5562 20.6587 36.9757 24.1465 39.0459C26.4736 40.4285 28.5073 40.8851 30.1802 40.8851C32.3818 40.8851 33.9585 40.0941 34.7495 39.5797L35.2466 39.2472C35.3027 39.2086 35.3428 39.1544 35.3828 39.1055L36.4663 38.2899C36.4785 38.2794 36.4854 38.2654 36.4976 38.2549C36.5029 38.2496 36.5117 38.2515 36.5186 38.2462C37.2886 37.5426 37.8228 36.8059 38.1934 35.9326C39.1543 33.6945 37.4341 31.5507 36.2964 30.1315ZM36.9072 35.3832C36.6187 36.0621 36.1968 36.6396 35.5879 37.1997L33.9761 38.4124C32.5166 39.361 29.3965 40.5334 24.8638 37.8419C21.376 35.7716 17.5366 32.2716 13.7583 27.72L12.7363 26.4285C9.17871 21.7104 6.67627 17.1919 5.49463 13.3629C3.95996 8.38416 5.89355 5.71362 7.18896 4.56042C7.31982 4.44141 7.45117 4.33118 7.58057 4.22095L7.58594 4.2157L8.76025 3.34595C9.47412 2.89441 10.1357 2.64246 10.897 2.52686C12.5229 2.28186 13.8457 3.99695 14.8169 5.24292L15.0444 5.53162C17.0605 8.07446 17.2549 9.28369 17.1919 9.77722C17.1216 10.325 16.2886 11.0266 15.5537 11.6444L15.4507 11.7319C15.4473 11.7354 15.4453 11.7407 15.4419 11.7441C15.4365 11.7477 15.4312 11.7494 15.4263 11.7529L14.3076 12.7871C14.3008 12.7942 14.2974 12.8029 14.2905 12.8116C14.2832 12.8204 14.2695 12.8239 14.2622 12.8326C14.0889 13.0269 13.9404 13.2212 13.8193 13.4224C13.1914 14.4741 12.5981 16.6477 13.5342 18.3295C14.3516 19.7994 15.9072 22.1217 17.3369 23.9977C18.8315 25.8107 20.7373 27.8687 21.9727 28.9974C22.8984 29.8427 24.1865 30.1262 25.3013 30.1262C25.8979 30.1262 26.4458 30.0439 26.8604 29.9266C27.0791 29.8636 27.3052 29.7727 27.5376 29.6589C27.5518 29.6519 27.5586 29.6396 27.5728 29.6309C27.5796 29.6274 27.5903 29.6292 27.5972 29.6239L28.896 28.8119C28.938 28.7839 28.9658 28.7472 29.001 28.7122L29.0166 28.7296C29.8164 28.1749 30.728 27.5239 31.2983 27.6184C31.8042 27.6797 32.9521 28.1661 34.9717 30.7159L35.2046 31.0082C36.188 32.2349 37.5356 33.9149 36.9072 35.3832Z" fill="#FFFFFF" fill-opacity="1.000000" fill-rule="nonzero"/>
	</g>
</svg>
